<svg xmlns="http://www.w3.org/2000/svg"  viewBox="0 0 48 48" width="48px" height="48px" baseProfile="basic"><circle cx="24" cy="24" r="20" fill="#fc9c9c"/><path fill="#324561" d="M18.998,44.479c-0.088,0-0.176-0.011-0.264-0.035c-0.533-0.146-0.848-0.695-0.702-1.228	c0.692-2.538,1.64-6.028,2.546-9.398c-0.17-0.156-0.334-0.32-0.491-0.492c-1.404-1.531-2.988-4.411-2.555-9.435	c0.298-3.452,2.152-5.771,4.614-5.771c0.999,0,1.88,0.398,2.481,1.122c0.796,0.958,1.058,2.429,0.738,4.142	c-0.153,0.813-1.308,5.182-2.511,9.667c0.951,0.594,2.046,0.918,3.161,0.918c5.082,0,8.914-4.376,8.914-10.179	c0-5.581-4.521-9.789-10.516-9.789c-7.794,0-11.344,5.341-11.344,10.304c0,2.187,1.021,4.634,2.426,5.818	c0.422,0.356,0.476,0.987,0.12,1.409c-0.357,0.421-0.988,0.476-1.409,0.12c-1.847-1.558-3.137-4.578-3.137-7.348	C11.071,18.378,15.247,12,24.415,12c7.135,0,12.516,5.068,12.516,11.789c0,6.943-4.692,12.179-10.914,12.179	c-1.291,0-2.56-0.323-3.698-0.923c-1.175,4.363-2.261,8.347-2.356,8.696C19.841,44.187,19.438,44.479,18.998,44.479z M22.146,20.119	c-1.576,0-2.452,1.98-2.622,3.943c-0.271,3.134,0.306,5.701,1.667,7.471c1.131-4.225,2.081-7.839,2.209-8.519	c0.205-1.101,0.092-2.01-0.311-2.495C22.865,20.25,22.558,20.119,22.146,20.119z"/></svg>