<svg xmlns="http://www.w3.org/2000/svg"  viewBox="0 0 48 48" width="48px" height="48px" baseProfile="basic"><path fill="#fc9c9c" d="M32,5H16C9.935,5,5,9.935,5,16v16c0,6.065,4.935,11,11,11h16c6.065,0,11-4.935,11-11V16	C43,9.935,38.065,5,32,5z"/><path fill="#324561" d="M24,34c-5.514,0-10-4.486-10-10s4.486-10,10-10s10,4.486,10,10S29.514,34,24,34z M24,16	c-4.411,0-8,3.589-8,8s3.589,8,8,8s8-3.589,8-8S28.411,16,24,16z"/><path fill="#324561" d="M35,11c-1.105,0-2,0.895-2,2s0.895,2,2,2s2-0.895,2-2S36.105,11,35,11z"/></svg>